# xmcd
#
# Track frame offsets:
#	150
#	20107
#	37114
#	53653
#	71642
#	87064
#	105772
#	124004
#	145320
#	160191
#	179639
#
# Disc length: 2969 seconds
#
# Revision: 1
# Processed by: cddbd v1.5.1PL2 Copyright (c) Steve Scherf et al.
# Submitted via: audiograbber 1.83.01
#
DISCID=920b970b
DTITLE=The Britt Lloyd Band - Unlabeled
DYEAR=2006
DGENRE=Country Rock
TTITLE0=Day In, Day Out
TTITLE1=7/4
TTITLE2=Reachin'
TTITLE3=Rose and a Song
TTITLE4=Weekend
TTITLE5=Broken Down
TTITLE6=Chokin' On Air
TTITLE7=Our Fairytale
TTITLE8=3 Ring Show
TTITLE9=Ride On
TTITLE10=Drift
EXTD=
EXTT0=
EXTT1=
EXTT2=
EXTT3=
EXTT4=
EXTT5=
EXTT6=
EXTT7=
EXTT8=
EXTT9=
EXTT10=
PLAYORDER=
